# This file uses centimeters as units for non-parametric coordinates.

mtllib planter.mtl
v 1.500000 0.038355 -0.000000
v 1.426585 0.038355 -0.463526
v 1.213526 0.038355 -0.881678
v 0.881678 0.038355 -1.213526
v 0.463526 0.038355 -1.426585
v 0.000000 0.038355 -1.500000
v -0.463526 0.038355 -1.426585
v -0.881678 0.038355 -1.213526
v -1.213526 0.038355 -0.881678
v -1.426585 0.038355 -0.463526
v -1.500000 0.038355 -0.000000
v -1.426585 0.038355 0.463526
v -1.213526 0.038355 0.881678
v -0.881678 0.038355 1.213526
v -0.463526 0.038355 1.426585
v -0.000000 0.038355 1.500001
v 0.463526 0.038355 1.426585
v 0.881678 0.038355 1.213526
v 1.213526 0.038355 0.881678
v 1.426585 0.038355 0.463526
v 2.000000 0.038355 -0.000000
v 1.902113 0.038355 -0.618034
v 1.618034 0.038355 -1.175571
v 1.175570 0.038355 -1.618034
v 0.618034 0.038355 -1.902113
v -0.000000 0.038355 -2.000000
v -0.618034 0.038355 -1.902113
v -1.175571 0.038355 -1.618034
v -1.618034 0.038355 -1.175571
v -1.902114 0.038355 -0.618034
v -2.000000 0.038355 -0.000000
v -1.902114 0.038355 0.618034
v -1.618034 0.038355 1.175571
v -1.175571 0.038355 1.618035
v -0.618034 0.038355 1.902114
v 0.000000 0.038355 2.000001
v 0.618034 0.038355 1.902114
v 1.175571 0.038355 1.618035
v 1.618035 0.038355 1.175571
v 1.902114 0.038355 0.618034
v 1.500000 0.219134 0.000000
v 1.561003 0.279385 -0.000000
v 1.426585 0.219134 -0.463526
v 1.484602 0.279385 -0.482376
v 1.213526 0.219134 -0.881678
v 1.262878 0.279385 -0.917534
v 0.881678 0.219134 -1.213526
v 0.917535 0.279385 -1.262878
v 0.463526 0.219134 -1.426585
v 0.482377 0.279385 -1.484602
v 0.000000 0.219134 -1.500000
v 0.000000 0.279385 -1.561003
v -0.463526 0.219134 -1.426585
v -0.482376 0.279385 -1.484602
v -0.881678 0.219134 -1.213526
v -0.917535 0.279385 -1.262878
v -1.213526 0.219134 -0.881678
v -1.262878 0.279385 -0.917535
v -1.426585 0.219134 -0.463526
v -1.484602 0.279385 -0.482377
v -1.500000 0.219134 -0.000000
v -1.561003 0.279385 -0.000000
v -1.426585 0.219134 0.463526
v -1.484602 0.279385 0.482376
v -1.213526 0.219134 0.881678
v -1.262878 0.279385 0.917535
v -0.881678 0.219134 1.213526
v -0.917535 0.279385 1.262878
v -0.463526 0.219134 1.426585
v -0.482377 0.279385 1.484602
v -0.000000 0.219134 1.500001
v -0.000000 0.279385 1.561003
v 0.463526 0.219134 1.426585
v 0.482376 0.279385 1.484602
v 0.881678 0.219134 1.213526
v 0.917535 0.279385 1.262878
v 1.213526 0.219134 0.881678
v 1.262878 0.279385 0.917535
v 1.426585 0.219134 0.463526
v 1.484602 0.279385 0.482377
v 2.000000 0.255285 0.000000
v 1.975599 0.279385 0.000000
v 1.902113 0.255285 -0.618034
v 1.878906 0.279385 -0.610494
v 1.618034 0.255285 -1.175571
v 1.598293 0.279385 -1.161228
v 1.175570 0.255285 -1.618034
v 1.161228 0.279385 -1.598293
v 0.618034 0.255285 -1.902113
v 0.610494 0.279385 -1.878906
v -0.000000 0.255285 -2.000000
v -0.000000 0.279385 -1.975599
v -0.618034 0.255285 -1.902113
v -0.610494 0.279385 -1.878906
v -1.175571 0.255285 -1.618034
v -1.161228 0.279385 -1.598293
v -1.618034 0.255285 -1.175571
v -1.598293 0.279385 -1.161228
v -1.902114 0.255285 -0.618034
v -1.878907 0.279385 -0.610494
v -2.000000 0.255285 0.000000
v -1.975599 0.279385 0.000000
v -1.902114 0.255285 0.618034
v -1.878907 0.279385 0.610494
v -1.618034 0.255285 1.175571
v -1.598294 0.279385 1.161228
v -1.175571 0.255285 1.618035
v -1.161228 0.279385 1.598294
v -0.618034 0.255285 1.902114
v -0.610494 0.279385 1.878907
v 0.000000 0.255285 2.000001
v 0.000000 0.279385 1.975600
v 0.618034 0.255285 1.902114
v 0.610494 0.279385 1.878907
v 1.175571 0.255285 1.618035
v 1.161229 0.279385 1.598294
v 1.618035 0.255285 1.175571
v 1.598294 0.279385 1.161229
v 1.902114 0.255285 0.618034
v 1.878907 0.279385 0.610494
vt 0.000000 0.250000
vt 0.000000 0.000000
vt 0.050000 0.000000
vt 0.100000 0.000000
vt 0.150000 0.000000
vt 0.200000 0.000000
vt 0.250000 0.000000
vt 0.300000 0.000000
vt 0.350000 0.000000
vt 0.400000 0.000000
vt 0.450000 0.000000
vt 0.500000 0.000000
vt 0.550000 0.000000
vt 0.600000 0.000000
vt 0.650000 0.000000
vt 0.700000 0.000000
vt 0.750000 0.000000
vt 0.800000 0.000000
vt 0.850000 0.000000
vt 0.900000 0.000000
vt 0.950000 0.000000
vt 1.000000 0.000000
vt 0.000000 0.812494
vt 1.000000 0.719499
vt 0.000000 1.000000
vt 0.050000 0.812494
vt 0.050000 1.000000
vt 0.100000 0.812494
vt 0.100000 1.000000
vt 0.150000 0.812494
vt 0.150000 1.000000
vt 0.200000 0.812494
vt 0.200000 1.000000
vt 0.250000 0.812494
vt 0.250000 1.000000
vt 0.300000 0.812494
vt 0.300000 1.000000
vt 0.350000 0.812494
vt 0.350000 1.000000
vt 0.400000 0.812494
vt 0.400000 1.000000
vt 0.450000 0.812494
vt 0.450000 1.000000
vt 0.500000 0.812494
vt 0.500000 1.000000
vt 0.550000 0.812494
vt 0.550000 1.000000
vt 0.600000 0.812494
vt 0.600000 1.000000
vt 0.650000 0.812494
vt 0.650000 1.000000
vt 0.700000 0.812494
vt 0.700000 1.000000
vt 0.750000 0.812494
vt 0.750000 1.000000
vt 0.800000 0.812494
vt 0.800000 1.000000
vt 0.850000 0.812494
vt 0.850000 1.000000
vt 0.900000 0.812494
vt 0.900000 1.000000
vt 0.950000 0.812494
vt 1.000000 1.000000
vt 0.950000 1.000000
vt 1.000000 0.812494
vt 1.000000 0.475002
vt 0.000000 0.512201
vt 0.000000 0.475002
vt 0.050000 0.250000
vt 0.050000 0.475002
vt 0.100000 0.250000
vt 0.100000 0.475002
vt 0.150000 0.250000
vt 0.150000 0.475002
vt 0.200000 0.250000
vt 0.200000 0.475003
vt 0.250000 0.250000
vt 0.250000 0.475002
vt 0.300000 0.250000
vt 0.300000 0.475002
vt 0.350000 0.250000
vt 0.350000 0.475002
vt 0.400000 0.250000
vt 0.400000 0.475002
vt 0.450000 0.250000
vt 0.450000 0.475002
vt 0.500000 0.250000
vt 0.500000 0.475003
vt 0.550000 0.250000
vt 0.550000 0.475002
vt 0.600000 0.250000
vt 0.600000 0.475002
vt 0.650000 0.250000
vt 0.650000 0.475002
vt 0.700000 0.250000
vt 0.700000 0.475002
vt 0.750000 0.250000
vt 0.750000 0.475002
vt 0.800000 0.250000
vt 0.800000 0.475002
vt 0.850000 0.250000
vt 0.850000 0.475002
vt 0.900000 0.250000
vt 0.900000 0.475002
vt 0.950000 0.250000
vt 0.950000 0.475002
vt 1.000000 0.250000
vt 0.000000 0.719499
vt 0.050000 0.512201
vt 0.050000 0.719499
vt 0.100000 0.512201
vt 0.100000 0.719499
vt 0.150000 0.512201
vt 0.150000 0.719499
vt 0.200000 0.512201
vt 0.200000 0.719499
vt 0.250000 0.512201
vt 0.250000 0.719499
vt 0.300000 0.512201
vt 0.300000 0.719499
vt 0.350000 0.512201
vt 0.350000 0.719499
vt 0.400000 0.512201
vt 0.400000 0.719499
vt 0.450000 0.512201
vt 0.450000 0.719499
vt 0.500000 0.512201
vt 0.500000 0.719499
vt 0.550000 0.512201
vt 0.550000 0.719499
vt 0.600000 0.512201
vt 0.600000 0.719499
vt 0.650000 0.512201
vt 0.650000 0.719499
vt 0.700000 0.512201
vt 0.700000 0.719499
vt 0.750000 0.512201
vt 0.750000 0.719499
vt 0.800000 0.512201
vt 0.800000 0.719499
vt 0.850000 0.512201
vt 0.850000 0.719499
vt 0.900000 0.512201
vt 0.900000 0.719499
vt 0.950000 0.512201
vt 0.950000 0.719499
vt 1.000000 0.512201
vn 0.000000 -1.000000 0.000000
vn 0.000000 -1.000000 0.000000
vn 0.000000 -1.000000 0.000000
vn 0.000000 -1.000000 -0.000000
vn 0.000000 -1.000000 -0.000000
vn 0.000000 -1.000000 -0.000000
vn 0.000000 -1.000000 -0.000000
vn 0.000000 -1.000000 0.000000
vn 0.000000 -1.000000 -0.000000
vn 0.000000 -1.000000 -0.000000
vn 0.000000 -1.000000 -0.000000
vn 0.000000 -1.000000 -0.000000
vn 0.000000 -1.000000 -0.000000
vn 0.000000 -1.000000 -0.000000
vn 0.000000 -1.000000 0.000000
vn 0.000000 -1.000000 -0.000000
vn 0.000000 -1.000000 0.000000
vn 0.000000 -1.000000 0.000000
vn 0.000000 -1.000000 0.000000
vn 0.000000 -1.000000 0.000000
vn 0.000000 -1.000000 -0.000000
vn 0.000000 -1.000000 0.000000
vn 0.000000 -1.000000 -0.000000
vn 0.000000 -1.000000 -0.000000
vn 0.000000 -1.000000 0.000000
vn 0.000000 -1.000000 0.000000
vn 0.000000 -1.000000 0.000000
vn 0.000000 -1.000000 -0.000000
vn 0.000000 -1.000000 0.000000
vn 0.000000 -1.000000 0.000000
vn 0.000000 -1.000000 0.000000
vn 0.000000 -1.000000 0.000000
vn 0.000000 -1.000000 0.000000
vn 0.000000 -1.000000 0.000000
vn 0.000000 -1.000000 -0.000000
vn 0.000000 -1.000000 0.000000
vn 0.000000 -1.000000 -0.000000
vn 0.000000 -1.000000 -0.000000
vn 0.000000 -1.000000 -0.000000
vn 0.000000 -1.000000 -0.000000
vn -0.702714 0.711472 -0.001098
vn -0.702713 0.711472 -0.001048
vn -0.668660 0.711472 0.216106
vn -0.668643 0.711473 0.216153
vn -0.667996 0.711473 -0.218147
vn -0.667981 0.711472 -0.218194
vn -0.569153 0.711472 0.412156
vn -0.569123 0.711473 0.412196
vn -0.413933 0.711472 0.567861
vn -0.413893 0.711472 0.567891
vn -0.218195 0.711472 0.667981
vn -0.218148 0.711472 0.667996
vn -0.001099 0.711472 0.702713
vn -0.001049 0.711472 0.702713
vn 0.216106 0.711472 0.668660
vn 0.216153 0.711472 0.668644
vn 0.412156 0.711472 0.569153
vn 0.412196 0.711472 0.569123
vn 0.567862 0.711471 0.413934
vn 0.567891 0.711472 0.413893
vn 0.667980 0.711472 0.218195
vn 0.667995 0.711473 0.218147
vn 0.702713 0.711472 0.001098
vn 0.702713 0.711472 0.001049
vn 0.668660 0.711472 -0.216106
vn 0.668644 0.711472 -0.216153
vn 0.569153 0.711472 -0.412156
vn 0.569123 0.711473 -0.412196
vn 0.413933 0.711473 -0.567861
vn 0.413893 0.711473 -0.567890
vn 0.218195 0.711472 -0.667981
vn 0.218148 0.711472 -0.667996
vn 0.001098 0.711472 -0.702713
vn 0.001049 0.711472 -0.702713
vn -0.216106 0.711472 -0.668660
vn -0.216153 0.711472 -0.668644
vn -0.412156 0.711472 -0.569153
vn -0.412196 0.711472 -0.569123
vn -0.567861 0.711472 -0.413933
vn -0.567890 0.711473 -0.413893
vn -0.951057 0.000000 0.309017
vn -1.000000 0.000000 0.000001
vn -0.951057 0.000000 0.309017
vn -1.000000 0.000000 0.000001
vn -0.809017 0.000000 0.587785
vn -0.809017 0.000000 0.587785
vn -0.587785 0.000000 0.809017
vn -0.587785 0.000000 0.809017
vn -0.309017 0.000000 0.951056
vn -0.309017 0.000000 0.951057
vn -0.000000 0.000000 1.000000
vn -0.000000 0.000000 1.000000
vn 0.309017 0.000000 0.951057
vn 0.309017 0.000000 0.951057
vn 0.587785 0.000000 0.809017
vn 0.587785 0.000000 0.809017
vn 0.809017 0.000000 0.587785
vn 0.809017 0.000000 0.587785
vn 0.951057 0.000000 0.309017
vn 0.951056 0.000000 0.309017
vn 1.000000 0.000000 0.000000
vn 1.000000 0.000000 0.000000
vn 0.951057 0.000000 -0.309017
vn 0.951057 0.000000 -0.309017
vn 0.809017 0.000000 -0.587785
vn 0.809017 0.000000 -0.587785
vn 0.587785 0.000000 -0.809017
vn 0.587786 0.000000 -0.809017
vn 0.309017 0.000000 -0.951057
vn 0.309017 0.000000 -0.951056
vn -0.000000 0.000000 -1.000000
vn 0.000000 0.000000 -1.000000
vn -0.309017 0.000000 -0.951057
vn -0.309017 0.000000 -0.951057
vn -0.587785 0.000000 -0.809017
vn -0.587785 0.000000 -0.809017
vn -0.809017 0.000000 -0.587785
vn -0.809017 0.000000 -0.587785
vn -0.951057 0.000000 -0.309016
vn -0.951057 0.000000 -0.309016
vn 0.702709 0.711477 0.000544
vn 0.702709 0.711477 0.000549
vn 0.668153 0.711472 0.217668
vn 0.668152 0.711471 0.217673
vn 0.668489 0.711473 -0.216628
vn 0.668489 0.711472 -0.216632
vn 0.568830 0.711472 -0.412600
vn 0.568828 0.711472 -0.412604
vn 0.413489 0.711473 -0.568184
vn 0.413485 0.711473 -0.568187
vn 0.217672 0.711473 -0.668150
vn 0.217668 0.711473 -0.668152
vn 0.000549 0.711473 -0.702713
vn 0.000545 0.711473 -0.702713
vn -0.216628 0.711474 -0.668489
vn -0.216632 0.711474 -0.668487
vn -0.412600 0.711474 -0.568829
vn -0.412603 0.711474 -0.568826
vn -0.568182 0.711476 -0.413487
vn -0.568185 0.711475 -0.413484
vn -0.668149 0.711474 -0.217672
vn -0.668152 0.711473 -0.217668
vn -0.702716 0.711470 -0.000549
vn -0.702717 0.711470 -0.000545
vn -0.668490 0.711473 0.216628
vn -0.668489 0.711472 0.216633
vn -0.568832 0.711471 0.412601
vn -0.568829 0.711471 0.412605
vn -0.413489 0.711473 0.568184
vn -0.413485 0.711474 0.568186
vn -0.217672 0.711474 0.668149
vn -0.217668 0.711474 0.668150
vn -0.000549 0.711473 0.702713
vn -0.000545 0.711473 0.702713
vn 0.216628 0.711474 0.668489
vn 0.216632 0.711474 0.668487
vn 0.412600 0.711473 0.568830
vn 0.412604 0.711473 0.568827
vn 0.568183 0.711474 0.413488
vn 0.568186 0.711474 0.413484
vn 0.951057 0.000000 -0.309017
vn 1.000000 -0.000000 -0.000001
vn 0.951057 0.000000 -0.309017
vn 1.000000 -0.000000 -0.000001
vn 0.809017 0.000000 -0.587785
vn 0.809017 0.000000 -0.587785
vn 0.587785 0.000000 -0.809017
vn 0.587785 0.000000 -0.809017
vn 0.309017 0.000000 -0.951057
vn 0.309017 0.000000 -0.951057
vn 0.000000 0.000000 -1.000000
vn -0.000000 0.000000 -1.000000
vn -0.309017 0.000000 -0.951057
vn -0.309017 0.000000 -0.951057
vn -0.587785 0.000000 -0.809017
vn -0.587785 0.000000 -0.809017
vn -0.809017 0.000000 -0.587785
vn -0.809017 0.000000 -0.587785
vn -0.951057 0.000000 -0.309017
vn -0.951057 0.000000 -0.309017
vn -1.000000 0.000000 0.000000
vn -1.000000 0.000000 0.000000
vn -0.951057 0.000000 0.309017
vn -0.951057 0.000000 0.309017
vn -0.809017 0.000000 0.587785
vn -0.809017 0.000000 0.587785
vn -0.587786 0.000000 0.809017
vn -0.587785 0.000000 0.809017
vn -0.309017 0.000000 0.951057
vn -0.309017 0.000000 0.951057
vn -0.000000 0.000000 1.000000
vn 0.000000 0.000000 1.000000
vn 0.309017 0.000000 0.951057
vn 0.309017 0.000000 0.951057
vn 0.587785 0.000000 0.809017
vn 0.587785 0.000000 0.809017
vn 0.809017 0.000000 0.587785
vn 0.809017 0.000000 0.587785
vn 0.951057 -0.000000 0.309016
vn 0.951057 0.000000 0.309016
vn 0.000000 1.000000 0.000000
vn 0.000000 1.000000 0.000000
vn 0.000000 1.000000 0.000000
vn 0.000000 1.000000 0.000000
vn 0.000000 1.000000 0.000000
vn 0.000000 1.000000 0.000000
vn 0.000000 1.000000 -0.000000
vn 0.000000 1.000000 -0.000000
vn 0.000000 1.000000 0.000000
vn 0.000000 1.000000 -0.000000
vn 0.000000 1.000000 0.000000
vn 0.000000 1.000000 0.000000
vn 0.000000 1.000000 -0.000000
vn 0.000000 1.000000 -0.000000
vn 0.000000 1.000000 0.000000
vn 0.000000 1.000000 -0.000000
vn 0.000000 1.000000 -0.000000
vn 0.000000 1.000000 -0.000000
vn 0.000000 1.000000 0.000000
vn 0.000000 1.000000 -0.000000
vn 0.000000 1.000000 0.000000
vn 0.000000 1.000000 0.000000
vn 0.000000 1.000000 0.000000
vn 0.000000 1.000000 0.000000
vn 0.000000 1.000000 0.000000
vn 0.000000 1.000000 0.000000
vn 0.000000 1.000000 0.000000
vn 0.000000 1.000000 0.000000
vn 0.000000 1.000000 -0.000000
vn 0.000000 1.000000 0.000000
vn 0.000000 1.000000 -0.000000
vn 0.000000 1.000000 0.000000
vn 0.000000 1.000000 0.000000
vn 0.000000 1.000000 0.000000
vn 0.000000 1.000000 -0.000000
vn 0.000000 1.000000 0.000000
vn 0.000000 1.000000 0.000000
vn 0.000000 1.000000 0.000000
vn 0.000000 1.000000 0.000000
vn 0.000000 1.000000 0.000000
usemtl initialShadingGroup
f 22/69/1 21/1/2 2/3/3
f 2/3/3 21/1/2 1/2/4
f 23/71/5 22/69/1 3/4/6
f 3/4/6 22/69/1 2/3/3
f 24/73/7 23/71/5 4/5/8
f 4/5/8 23/71/5 3/4/6
f 25/75/9 24/73/7 5/6/10
f 5/6/10 24/73/7 4/5/8
f 26/77/11 25/75/9 6/7/12
f 6/7/12 25/75/9 5/6/10
f 27/79/13 26/77/11 7/8/14
f 7/8/14 26/77/11 6/7/12
f 28/81/15 27/79/13 8/9/16
f 8/9/16 27/79/13 7/8/14
f 29/83/17 28/81/15 9/10/18
f 9/10/18 28/81/15 8/9/16
f 30/85/19 29/83/17 10/11/20
f 10/11/20 29/83/17 9/10/18
f 31/87/21 30/85/19 11/12/22
f 11/12/22 30/85/19 10/11/20
f 32/89/23 31/87/21 12/13/24
f 12/13/24 31/87/21 11/12/22
f 33/91/25 32/89/23 13/14/26
f 13/14/26 32/89/23 12/13/24
f 34/93/27 33/91/25 14/15/28
f 14/15/28 33/91/25 13/14/26
f 35/95/29 34/93/27 15/16/30
f 15/16/30 34/93/27 14/15/28
f 36/97/31 35/95/29 16/17/32
f 16/17/32 35/95/29 15/16/30
f 37/99/33 36/97/31 17/18/34
f 17/18/34 36/97/31 16/17/32
f 38/101/35 37/99/33 18/19/36
f 18/19/36 37/99/33 17/18/34
f 39/103/37 38/101/35 19/20/38
f 19/20/38 38/101/35 18/19/36
f 40/105/39 39/103/37 20/21/40
f 20/21/40 39/103/37 19/20/38
f 21/107/2 40/105/39 1/22/4
f 1/22/4 40/105/39 20/21/40
f 41/23/41 42/108/42 43/26/43
f 43/26/43 42/108/42 44/110/44
f 42/24/42 41/65/41 80/146/45
f 80/146/45 41/65/41 79/62/46
f 43/26/43 44/110/44 45/28/47
f 45/28/47 44/110/44 46/112/48
f 45/28/47 46/112/48 47/30/49
f 47/30/49 46/112/48 48/114/50
f 47/30/49 48/114/50 49/32/51
f 49/32/51 48/114/50 50/116/52
f 49/32/51 50/116/52 51/34/53
f 51/34/53 50/116/52 52/118/54
f 51/34/53 52/118/54 53/36/55
f 53/36/55 52/118/54 54/120/56
f 53/36/55 54/120/56 55/38/57
f 55/38/57 54/120/56 56/122/58
f 55/38/57 56/122/58 57/40/59
f 57/40/59 56/122/58 58/124/60
f 57/40/59 58/124/60 59/42/61
f 59/42/61 58/124/60 60/126/62
f 59/42/61 60/126/62 61/44/63
f 61/44/63 60/126/62 62/128/64
f 61/44/63 62/128/64 63/46/65
f 63/46/65 62/128/64 64/130/66
f 63/46/65 64/130/66 65/48/67
f 65/48/67 64/130/66 66/132/68
f 65/48/67 66/132/68 67/50/69
f 67/50/69 66/132/68 68/134/70
f 67/50/69 68/134/70 69/52/71
f 69/52/71 68/134/70 70/136/72
f 69/52/71 70/136/72 71/54/73
f 71/54/73 70/136/72 72/138/74
f 71/54/73 72/138/74 73/56/75
f 73/56/75 72/138/74 74/140/76
f 73/56/75 74/140/76 75/58/77
f 75/58/77 74/140/76 76/142/78
f 75/58/77 76/142/78 77/60/79
f 77/60/79 76/142/78 78/144/80
f 77/60/79 78/144/80 79/62/46
f 79/62/46 78/144/80 80/146/45
f 2/27/81 1/25/82 43/26/83
f 43/26/83 1/25/82 41/23/84
f 3/29/85 2/27/81 45/28/86
f 45/28/86 2/27/81 43/26/83
f 4/31/87 3/29/85 47/30/88
f 47/30/88 3/29/85 45/28/86
f 5/33/89 4/31/87 49/32/90
f 49/32/90 4/31/87 47/30/88
f 6/35/91 5/33/89 51/34/92
f 51/34/92 5/33/89 49/32/90
f 7/37/93 6/35/91 53/36/94
f 53/36/94 6/35/91 51/34/92
f 8/39/95 7/37/93 55/38/96
f 55/38/96 7/37/93 53/36/94
f 9/41/97 8/39/95 57/40/98
f 57/40/98 8/39/95 55/38/96
f 10/43/99 9/41/97 59/42/100
f 59/42/100 9/41/97 57/40/98
f 11/45/101 10/43/99 61/44/102
f 61/44/102 10/43/99 59/42/100
f 12/47/103 11/45/101 63/46/104
f 63/46/104 11/45/101 61/44/102
f 13/49/105 12/47/103 65/48/106
f 65/48/106 12/47/103 63/46/104
f 14/51/107 13/49/105 67/50/108
f 67/50/108 13/49/105 65/48/106
f 15/53/109 14/51/107 69/52/110
f 69/52/110 14/51/107 67/50/108
f 16/55/111 15/53/109 71/54/112
f 71/54/112 15/53/109 69/52/110
f 17/57/113 16/55/111 73/56/114
f 73/56/114 16/55/111 71/54/112
f 18/59/115 17/57/113 75/58/116
f 75/58/116 17/57/113 73/56/114
f 19/61/117 18/59/115 77/60/118
f 77/60/118 18/59/115 75/58/116
f 20/64/119 19/61/117 79/62/120
f 79/62/120 19/61/117 77/60/118
f 1/63/82 20/64/119 41/65/84
f 41/65/84 20/64/119 79/62/120
f 81/66/121 82/147/122 119/106/123
f 119/106/123 82/147/122 120/145/124
f 82/67/122 81/68/121 84/109/125
f 84/109/125 81/68/121 83/70/126
f 84/109/125 83/70/126 86/111/127
f 86/111/127 83/70/126 85/72/128
f 86/111/127 85/72/128 88/113/129
f 88/113/129 85/72/128 87/74/130
f 88/113/129 87/74/130 90/115/131
f 90/115/131 87/74/130 89/76/132
f 90/115/131 89/76/132 92/117/133
f 92/117/133 89/76/132 91/78/134
f 92/117/133 91/78/134 94/119/135
f 94/119/135 91/78/134 93/80/136
f 94/119/135 93/80/136 96/121/137
f 96/121/137 93/80/136 95/82/138
f 96/121/137 95/82/138 98/123/139
f 98/123/139 95/82/138 97/84/140
f 98/123/139 97/84/140 100/125/141
f 100/125/141 97/84/140 99/86/142
f 100/125/141 99/86/142 102/127/143
f 102/127/143 99/86/142 101/88/144
f 102/127/143 101/88/144 104/129/145
f 104/129/145 101/88/144 103/90/146
f 104/129/145 103/90/146 106/131/147
f 106/131/147 103/90/146 105/92/148
f 106/131/147 105/92/148 108/133/149
f 108/133/149 105/92/148 107/94/150
f 108/133/149 107/94/150 110/135/151
f 110/135/151 107/94/150 109/96/152
f 110/135/151 109/96/152 112/137/153
f 112/137/153 109/96/152 111/98/154
f 112/137/153 111/98/154 114/139/155
f 114/139/155 111/98/154 113/100/156
f 114/139/155 113/100/156 116/141/157
f 116/141/157 113/100/156 115/102/158
f 116/141/157 115/102/158 118/143/159
f 118/143/159 115/102/158 117/104/160
f 118/143/159 117/104/160 120/145/124
f 120/145/124 117/104/160 119/106/123
f 83/70/161 81/68/162 22/69/163
f 22/69/163 81/68/162 21/1/164
f 85/72/165 83/70/161 23/71/166
f 23/71/166 83/70/161 22/69/163
f 87/74/167 85/72/165 24/73/168
f 24/73/168 85/72/165 23/71/166
f 89/76/169 87/74/167 25/75/170
f 25/75/170 87/74/167 24/73/168
f 91/78/171 89/76/169 26/77/172
f 26/77/172 89/76/169 25/75/170
f 93/80/173 91/78/171 27/79/174
f 27/79/174 91/78/171 26/77/172
f 95/82/175 93/80/173 28/81/176
f 28/81/176 93/80/173 27/79/174
f 97/84/177 95/82/175 29/83/178
f 29/83/178 95/82/175 28/81/176
f 99/86/179 97/84/177 30/85/180
f 30/85/180 97/84/177 29/83/178
f 101/88/181 99/86/179 31/87/182
f 31/87/182 99/86/179 30/85/180
f 103/90/183 101/88/181 32/89/184
f 32/89/184 101/88/181 31/87/182
f 105/92/185 103/90/183 33/91/186
f 33/91/186 103/90/183 32/89/184
f 107/94/187 105/92/185 34/93/188
f 34/93/188 105/92/185 33/91/186
f 109/96/189 107/94/187 35/95/190
f 35/95/190 107/94/187 34/93/188
f 111/98/191 109/96/189 36/97/192
f 36/97/192 109/96/189 35/95/190
f 113/100/193 111/98/191 37/99/194
f 37/99/194 111/98/191 36/97/192
f 115/102/195 113/100/193 38/101/196
f 38/101/196 113/100/193 37/99/194
f 117/104/197 115/102/195 39/103/198
f 39/103/198 115/102/195 38/101/196
f 119/106/199 117/104/197 40/105/200
f 40/105/200 117/104/197 39/103/198
f 81/66/162 119/106/199 21/107/164
f 21/107/164 119/106/199 40/105/200
f 44/110/201 42/108/202 84/109/203
f 84/109/203 42/108/202 82/67/204
f 46/112/205 44/110/201 86/111/206
f 86/111/206 44/110/201 84/109/203
f 48/114/207 46/112/205 88/113/208
f 88/113/208 46/112/205 86/111/206
f 50/116/209 48/114/207 90/115/210
f 90/115/210 48/114/207 88/113/208
f 52/118/211 50/116/209 92/117/212
f 92/117/212 50/116/209 90/115/210
f 54/120/213 52/118/211 94/119/214
f 94/119/214 52/118/211 92/117/212
f 56/122/215 54/120/213 96/121/216
f 96/121/216 54/120/213 94/119/214
f 58/124/217 56/122/215 98/123/218
f 98/123/218 56/122/215 96/121/216
f 60/126/219 58/124/217 100/125/220
f 100/125/220 58/124/217 98/123/218
f 62/128/221 60/126/219 102/127/222
f 102/127/222 60/126/219 100/125/220
f 64/130/223 62/128/221 104/129/224
f 104/129/224 62/128/221 102/127/222
f 66/132/225 64/130/223 106/131/226
f 106/131/226 64/130/223 104/129/224
f 68/134/227 66/132/225 108/133/228
f 108/133/228 66/132/225 106/131/226
f 70/136/229 68/134/227 110/135/230
f 110/135/230 68/134/227 108/133/228
f 72/138/231 70/136/229 112/137/232
f 112/137/232 70/136/229 110/135/230
f 74/140/233 72/138/231 114/139/234
f 114/139/234 72/138/231 112/137/232
f 76/142/235 74/140/233 116/141/236
f 116/141/236 74/140/233 114/139/234
f 78/144/237 76/142/235 118/143/238
f 118/143/238 76/142/235 116/141/236
f 80/146/239 78/144/237 120/145/240
f 120/145/240 78/144/237 118/143/238
f 42/24/202 80/146/239 82/147/204
f 82/147/204 80/146/239 120/145/240
