# This file uses centimeters as units for non-parametric coordinates.

mtllib quad_all.mtl
v 29.750000 0.000000 -30.000000
v 29.750000 0.000000 30.000000
v 29.750000 10.000000 -30.000000
v 29.750000 10.000000 30.000000
v 30.250000 10.000000 -30.000000
v 30.250000 10.000000 30.000000
v 30.250000 0.000000 -30.000000
v 30.250000 0.000000 30.000000
vt -0.004402 0.000000
vt 1.000318 0.002157
vt -0.003493 0.358445
vt 1.003376 0.368242
vt 0.375000 0.500000
vt 0.625000 0.500000
vt 0.375000 0.750000
vt 0.625000 0.750000
vt 0.375000 1.000000
vt 0.625000 1.000000
vt 0.875000 0.000000
vt 0.875000 0.250000
vt 0.125000 0.000000
vt 0.125000 0.250000
vn -1.000000 0.000000 -0.000000
vn -1.000000 0.000000 -0.000000
vn -1.000000 0.000000 -0.000000
vn -1.000000 0.000000 -0.000000
vn -0.000000 1.000000 0.000000
vn -0.000000 1.000000 0.000000
vn -0.000000 1.000000 0.000000
vn -0.000000 1.000000 0.000000
vn 0.000000 -1.000000 0.000000
vn 0.000000 -1.000000 0.000000
vn 0.000000 -1.000000 0.000000
vn 0.000000 -1.000000 0.000000
vn -0.000000 0.000000 1.000000
vn -0.000000 0.000000 1.000000
vn -0.000000 0.000000 1.000000
vn -0.000000 0.000000 1.000000
vn 0.000000 0.000000 -1.000000
vn 0.000000 0.000000 -1.000000
vn 0.000000 0.000000 -1.000000
vn 0.000000 0.000000 -1.000000
usemtl quad:lambert4SG
f 3/3/1 1/1/2 4/4/3
f 4/4/3 1/1/2 2/2/4
f 5/5/5 3/3/6 6/6/7
f 6/6/7 3/3/6 4/4/8
f 1/9/9 7/7/10 2/10/11
f 2/10/11 7/7/10 8/8/12
f 4/4/13 2/2/14 6/12/15
f 6/12/15 2/2/14 8/11/16
f 5/14/17 7/13/18 3/3/19
f 3/3/19 7/13/18 1/1/20
v 4.601727 10.000000 -29.735997
v 4.601727 10.000000 -30.235997
v 4.601727 16.000000 -29.735997
v 4.601727 16.000000 -30.235997
v -9.313253 16.000000 -29.735997
v -9.313253 16.000000 -30.235997
v -9.313253 10.000000 -29.735997
v -9.313253 10.000000 -30.235997
vt 0.576327 0.348636
vt 0.625000 0.000000
vt 0.570356 0.651566
vt 0.625000 0.250000
vt 0.375000 0.500000
vt 0.625000 0.500000
vt 0.375000 0.750000
vt 0.625000 0.750000
vt 0.375000 1.000000
vt 0.625000 1.000000
vt 0.340586 0.347333
vt 0.343705 0.646622
vn 1.000000 0.000000 0.000000
vn 1.000000 0.000000 0.000000
vn 1.000000 0.000000 0.000000
vn 1.000000 0.000000 0.000000
vn 0.000000 1.000000 0.000000
vn 0.000000 1.000000 0.000000
vn 0.000000 1.000000 0.000000
vn 0.000000 1.000000 0.000000
vn -1.000000 0.000000 -0.000000
vn -1.000000 0.000000 -0.000000
vn -1.000000 0.000000 -0.000000
vn -1.000000 0.000000 -0.000000
vn 0.000000 -1.000000 0.000000
vn 0.000000 -1.000000 0.000000
vn 0.000000 -1.000000 0.000000
vn 0.000000 -1.000000 0.000000
vn -0.000000 0.000000 1.000000
vn -0.000000 0.000000 1.000000
vn -0.000000 0.000000 1.000000
vn -0.000000 0.000000 1.000000
usemtl quad:lambert2SG
f 11/17/21 9/15/22 12/18/23
f 12/18/23 9/15/22 10/16/24
f 13/19/25 11/17/26 14/20/27
f 14/20/27 11/17/26 12/18/28
f 15/21/29 13/19/30 16/22/31
f 16/22/31 13/19/30 14/20/32
f 9/23/33 15/21/34 10/24/35
f 10/24/35 15/21/34 16/22/36
f 13/26/37 15/25/38 11/17/39
f 11/17/39 15/25/38 9/15/40
v -30.250000 10.000000 12.500000
v -29.750000 10.000000 12.500000
v -30.250000 18.000000 12.500000
v -29.750000 18.000000 12.500000
v -30.250000 18.000000 -12.500000
v -29.750000 18.000000 -12.500000
v -30.250000 10.000000 -12.500000
v -29.750000 10.000000 -12.500000
vt 0.375000 0.000000
vt 0.300659 0.350033
vt 0.375000 0.250000
vt 0.304861 0.634909
vt 0.375000 0.500000
vt 0.625000 0.500000
vt 0.375000 0.750000
vt 0.625000 0.750000
vt 0.375000 1.000000
vt 0.625000 1.000000
vt 0.704112 0.343835
vt 0.690767 0.635805
vn 0.000000 0.000000 1.000000
vn 0.000000 0.000000 1.000000
vn 0.000000 0.000000 1.000000
vn 0.000000 0.000000 1.000000
vn 0.000000 1.000000 0.000000
vn 0.000000 1.000000 0.000000
vn 0.000000 1.000000 0.000000
vn 0.000000 1.000000 0.000000
vn 0.000000 0.000000 -1.000000
vn 0.000000 0.000000 -1.000000
vn 0.000000 0.000000 -1.000000
vn 0.000000 0.000000 -1.000000
vn 0.000000 -1.000000 0.000000
vn 0.000000 -1.000000 0.000000
vn 0.000000 -1.000000 0.000000
vn 0.000000 -1.000000 0.000000
vn 1.000000 0.000000 0.000000
vn 1.000000 0.000000 0.000000
vn 1.000000 0.000000 0.000000
vn 1.000000 0.000000 0.000000
usemtl initialShadingGroup
f 19/29/41 17/27/42 20/30/43
f 20/30/43 17/27/42 18/28/44
f 21/31/45 19/29/46 22/32/47
f 22/32/47 19/29/46 20/30/48
f 23/33/49 21/31/50 24/34/51
f 24/34/51 21/31/50 22/32/52
f 17/35/53 23/33/54 18/36/55
f 18/36/55 23/33/54 24/34/56
usemtl quad:lambert3SG
f 20/30/57 18/28/58 22/38/59
f 22/38/59 18/28/58 24/37/60
v -30.350000 5.272078 -0.000000
v -29.850000 5.552142 0.153581
v -30.350000 18.000001 12.727923
v -29.850000 17.846422 12.447858
v -30.350000 30.727924 0.000000
v -29.850000 30.447860 -0.153580
v -30.350000 18.000001 -12.727923
v -29.850000 18.153581 -12.447858
vt 0.375000 0.000000
vt 0.495448 0.501067
vt 0.375000 0.250000
vt 0.317765 0.630515
vt 0.375000 0.500000
vt 0.625000 0.500000
vt 0.375000 0.750000
vt 0.625000 0.750000
vt 0.375000 1.000000
vt 0.625000 1.000000
vt 0.682877 0.633744
vt 0.501516 0.905037
vn 0.176081 -0.696059 0.696059
vn 0.176081 -0.696059 0.696059
vn 0.176081 -0.696059 0.696059
vn 0.176081 -0.696059 0.696059
vn 0.522786 0.602783 0.602783
vn 0.522786 0.602783 0.602783
vn 0.522786 0.602783 0.602783
vn 0.522786 0.602783 0.602783
vn 0.176079 0.696059 -0.696059
vn 0.176080 0.696059 -0.696059
vn 0.176080 0.696059 -0.696059
vn 0.176081 0.696059 -0.696059
vn 0.522787 -0.602782 -0.602782
vn 0.522787 -0.602782 -0.602782
vn 0.522787 -0.602782 -0.602782
vn 0.522787 -0.602782 -0.602782
vn 1.000000 0.000000 0.000000
vn 1.000000 0.000000 0.000000
vn 1.000000 0.000000 0.000000
vn 1.000000 0.000000 0.000000
f 27/41/61 25/39/62 28/42/63
f 28/42/63 25/39/62 26/40/64
f 29/43/65 27/41/66 30/44/67
f 30/44/67 27/41/66 28/42/68
f 31/45/69 29/43/70 32/46/71
f 32/46/71 29/43/70 30/44/72
f 25/47/73 31/45/74 26/48/75
f 26/48/75 31/45/74 32/46/76
f 28/42/77 26/40/78 30/50/79
f 30/50/79 26/40/78 32/49/80
v -4.690406 16.000000 30.250000
v 9.032019 16.000000 30.250000
v -4.690406 20.000000 30.250000
v 9.032019 20.000000 30.250000
v -4.690403 20.000000 29.750000
v 9.032022 20.000000 29.750000
v -4.690403 16.000000 29.750000
v 9.032022 16.000000 29.750000
vt 0.375000 0.000000
vt 0.625000 0.000000
vt 0.375000 0.250000
vt 0.625000 0.250000
vt 0.319488 0.716454
vt 0.573262 0.614011
vt 0.321841 0.711781
vt 0.584812 0.649802
vt 0.375000 1.000000
vt 0.625000 1.000000
vt 0.875000 0.000000
vt 0.875000 0.250000
vt 0.125000 0.000000
vt 0.125000 0.250000
vt 0.593990 0.720282
vt 0.601004 0.708731
vt 0.333922 0.631166
vt 0.332875 0.649236
vn 0.000000 1.000000 0.000000
vn 0.000000 1.000000 0.000000
vn 0.000000 1.000000 0.000000
vn 0.000000 1.000000 0.000000
vn 0.000000 0.000000 -1.000000
vn 0.000000 0.000000 -1.000000
vn 0.000000 0.000000 -1.000000
vn 0.000000 0.000000 -1.000000
vn 0.000000 -1.000000 0.000000
vn 0.000000 -1.000000 0.000000
vn 0.000000 -1.000000 0.000000
vn 0.000000 -1.000000 0.000000
vn 1.000000 0.000000 0.000007
vn 1.000000 0.000000 0.000007
vn 1.000000 0.000000 0.000007
vn 1.000000 0.000000 0.000007
vn -1.000000 0.000000 -0.000007
vn -1.000000 0.000000 -0.000007
vn -1.000000 0.000000 -0.000007
vn -1.000000 0.000000 -0.000007
usemtl quad:lambert2SG
f 37/67/81 35/53/82 38/56/83
f 38/56/83 35/53/82 36/54/84
f 39/68/85 37/55/86 40/58/87
f 40/58/87 37/55/86 38/65/88
f 33/59/89 39/57/90 34/60/91
f 34/60/91 39/57/90 40/66/92
f 36/54/93 34/52/94 38/62/95
f 38/62/95 34/52/94 40/61/96
f 37/64/97 39/63/98 35/53/99
f 35/53/99 39/63/98 33/51/100
v 30.000000 -0.000000 29.749992
v -30.000000 0.000000 29.749992
v 30.000000 10.000000 29.749992
v -30.000000 10.000000 29.749992
v 30.000000 10.000000 30.250000
v -30.000000 10.000000 30.250000
v 30.000000 -0.000000 30.250000
v -30.000000 0.000000 30.250000
vt -0.003380 0.002162
vt 0.998596 -0.004294
vt -0.008676 0.361783
vt 1.000021 0.350720
vt 0.375000 0.500000
vt 0.625000 0.500000
vt 0.375000 0.750000
vt 0.625000 0.750000
vt 0.375000 1.000000
vt 0.625000 1.000000
vt 0.875000 0.000000
vt 0.875000 0.250000
vt 0.125000 0.000000
vt 0.125000 0.250000
vn 0.000000 0.000000 -1.000000
vn 0.000000 0.000000 -1.000000
vn 0.000000 0.000000 -1.000000
vn 0.000000 0.000000 -1.000000
vn 0.000000 1.000000 0.000000
vn 0.000000 1.000000 0.000000
vn 0.000000 1.000000 0.000000
vn 0.000000 1.000000 0.000000
vn -0.000000 -1.000000 -0.000000
vn -0.000000 -1.000000 -0.000000
vn -0.000000 -1.000000 -0.000000
vn -0.000000 -1.000000 -0.000000
vn -1.000000 0.000000 0.000000
vn -1.000000 0.000000 0.000000
vn -1.000000 0.000000 0.000000
vn -1.000000 0.000000 0.000000
vn 1.000000 -0.000000 0.000000
vn 1.000000 -0.000000 0.000000
vn 1.000000 -0.000000 0.000000
vn 1.000000 -0.000000 0.000000
f 43/71/101 41/69/102 44/72/103
f 44/72/103 41/69/102 42/70/104
f 45/73/105 43/71/106 46/74/107
f 46/74/107 43/71/106 44/72/108
f 41/77/109 47/75/110 42/78/111
f 42/78/111 47/75/110 48/76/112
f 44/72/113 42/70/114 46/80/115
f 46/80/115 42/70/114 48/79/116
f 45/82/117 47/81/118 43/71/119
f 43/71/119 47/81/118 41/69/120
v -30.000000 0.000000 -29.750000
v 30.000000 0.000000 -29.750000
v -30.000000 10.000000 -29.750000
v 30.000000 10.000000 -29.750000
v -30.000000 10.000000 -30.250000
v 30.000000 10.000000 -30.250000
v -30.000000 0.000000 -30.250000
v 30.000000 0.000000 -30.250000
vt -0.001367 -0.004261
vt 1.002743 0.000000
vt -0.007377 0.355915
vt 1.003349 0.349343
vt 0.375000 0.500000
vt 0.625000 0.500000
vt 0.375000 0.750000
vt 0.625000 0.750000
vt 0.375000 1.000000
vt 0.625000 1.000000
vt 0.875000 0.000000
vt 0.875000 0.250000
vt -1.091259 0.202710
vt 0.125000 0.250000
vn 0.000000 0.000000 1.000000
vn 0.000000 0.000000 1.000000
vn 0.000000 0.000000 1.000000
vn 0.000000 0.000000 1.000000
vn 0.000000 1.000000 0.000000
vn 0.000000 1.000000 0.000000
vn 0.000000 1.000000 0.000000
vn 0.000000 1.000000 0.000000
vn 0.000000 -1.000000 0.000000
vn 0.000000 -1.000000 0.000000
vn 0.000000 -1.000000 0.000000
vn 0.000000 -1.000000 0.000000
vn 1.000000 0.000000 0.000000
vn 1.000000 0.000000 0.000000
vn 1.000000 0.000000 0.000000
vn 1.000000 0.000000 0.000000
vn -1.000000 0.000000 0.000000
vn -1.000000 0.000000 0.000000
vn -1.000000 0.000000 0.000000
vn -1.000000 0.000000 0.000000
f 51/85/121 49/83/122 52/86/123
f 52/86/123 49/83/122 50/84/124
f 53/87/125 51/85/126 54/88/127
f 54/88/127 51/85/126 52/86/128
f 49/91/129 55/89/130 50/92/131
f 50/92/131 55/89/130 56/90/132
f 52/86/133 50/84/134 54/94/135
f 54/94/135 50/84/134 56/93/136
f 53/96/137 55/95/138 51/85/139
f 51/85/139 55/95/138 49/83/140
v -29.750000 0.000000 30.000000
v -29.750000 0.000000 -30.000000
v -29.750000 10.000000 30.000000
v -29.750000 10.000000 -30.000000
v -30.250000 10.000000 30.000000
v -30.250000 10.000000 -30.000000
v -30.250000 0.000000 30.000000
v -30.250000 0.000000 -30.000000
vt 0.003689 0.003782
vt 1.000102 0.000915
vt -0.009517 0.344229
vt 1.003520 0.353381
vt 0.380427 0.497287
vt 0.630427 0.497287
vt 0.380427 0.747287
vt 0.630427 0.747287
vt 0.380427 0.997287
vt 0.630427 0.997287
vt 0.946192 -0.005921
vt 1.000795 0.324784
vt -0.122414 -0.009087
vt 0.130427 0.247287
vn 1.000000 0.000000 0.000000
vn 1.000000 0.000000 0.000000
vn 1.000000 0.000000 0.000000
vn 1.000000 0.000000 0.000000
vn 0.000000 1.000000 0.000000
vn 0.000000 1.000000 0.000000
vn 0.000000 1.000000 0.000000
vn 0.000000 1.000000 0.000000
vn 0.000000 -1.000000 0.000000
vn 0.000000 -1.000000 0.000000
vn 0.000000 -1.000000 0.000000
vn 0.000000 -1.000000 0.000000
vn 0.000000 0.000000 -1.000000
vn 0.000000 0.000000 -1.000000
vn 0.000000 0.000000 -1.000000
vn 0.000000 0.000000 -1.000000
vn -0.000000 0.000000 1.000000
vn -0.000000 0.000000 1.000000
vn -0.000000 0.000000 1.000000
vn -0.000000 0.000000 1.000000
usemtl quad:lambert3SG
f 59/99/141 57/97/142 60/100/143
f 60/100/143 57/97/142 58/98/144
f 61/101/145 59/99/146 62/102/147
f 62/102/147 59/99/146 60/100/148
f 57/105/149 63/103/150 58/106/151
f 58/106/151 63/103/150 64/104/152
f 60/100/153 58/98/154 62/108/155
f 62/108/155 58/98/154 64/107/156
f 61/110/157 63/109/158 59/99/159
f 59/99/159 63/109/158 57/97/160
v 29.750000 10.000000 9.022088
v 30.250000 10.000000 4.693998
v 29.750000 15.000000 9.022088
v 30.250000 15.000000 4.693998
v 29.750000 15.000000 -11.105720
v 30.250000 15.000000 -9.430227
v 29.750000 10.000000 -11.105720
v 30.250000 10.000000 -9.430227
vt 0.649424 0.359516
vt 0.644847 0.534838
vt 0.625000 0.250000
vt 0.375000 0.500000
vt 0.625000 0.500000
vt 0.375000 0.750000
vt 0.625000 0.750000
vt 0.375000 1.000000
vt 0.625000 1.000000
vt 0.305394 0.355510
vt 0.304763 0.525059
vn 0.000000 1.000000 0.000000
vn 0.000000 1.000000 0.000000
vn 0.000000 1.000000 0.000000
vn 0.000000 1.000000 0.000000
vn 0.000000 -1.000000 0.000000
vn 0.000000 -1.000000 0.000000
vn 0.000000 -1.000000 0.000000
vn 0.000000 -1.000000 0.000000
vn -1.000000 0.000000 0.000000
vn -1.000000 0.000000 0.000000
vn -1.000000 0.000000 0.000000
vn -1.000000 0.000000 0.000000
usemtl quad:lambert4SG
f 67/112/161 68/113/162 69/114/163
f 69/114/163 68/113/162 70/115/164
f 72/117/165 66/119/166 71/116/167
f 71/116/167 66/119/166 65/118/168
f 69/121/169 71/120/170 67/112/171
f 67/112/171 71/120/170 65/111/172
v -9.514869 16.000000 -29.750000
v 4.602764 16.000000 -29.750000
v -9.514869 20.000000 -29.750000
v 4.602764 20.000000 -29.750000
v -9.317265 20.000000 -30.250000
v 4.405161 20.000000 -30.250000
v -9.317265 16.000000 -30.250000
v 4.405161 16.000000 -30.250000
vt 0.331831 0.648448
vt 0.580084 0.648801
vt 0.332198 0.731457
vt 0.584582 0.733881
vt 0.375000 0.500000
vt 0.625000 0.500000
vt 0.332658 0.638180
vt 0.587799 0.648803
vt 0.375000 1.000000
vt 0.625000 1.000000
vt 0.875000 0.000000
vt 0.875000 0.250000
vt 0.125000 0.000000
vt 0.125000 0.250000
vn 0.000000 0.000000 1.000000
vn 0.000000 0.000000 1.000000
vn 0.000000 0.000000 1.000000
vn 0.000000 0.000000 1.000000
vn 0.000000 1.000000 0.000000
vn 0.000000 1.000000 -0.000000
vn 0.000000 1.000000 -0.000000
vn 0.000000 1.000000 -0.000000
vn 0.000000 -1.000000 0.000000
vn 0.000000 -1.000000 0.000000
vn 0.000000 -1.000000 0.000000
vn 0.000000 -1.000000 0.000000
vn 0.930007 0.000000 -0.367543
vn 0.930007 0.000000 -0.367543
vn 0.930007 0.000000 -0.367543
vn 0.930007 0.000000 -0.367543
vn -0.930005 0.000000 -0.367547
vn -0.930005 0.000000 -0.367547
vn -0.930005 0.000000 -0.367547
vn -0.930005 0.000000 -0.367547
usemtl quad:lambert2SG
f 75/124/173 73/122/174 76/125/175
f 76/125/175 73/122/174 74/123/176
f 77/126/177 75/124/178 78/127/179
f 78/127/179 75/124/178 76/125/180
f 73/130/181 79/128/182 74/131/183
f 74/131/183 79/128/182 80/129/184
f 76/125/185 74/123/186 78/133/187
f 78/133/187 74/123/186 80/132/188
f 77/135/189 79/134/190 75/124/191
f 75/124/191 79/134/190 73/122/192
v 9.130970 10.000000 30.250000
v 9.051506 10.000000 29.750000
v 9.130970 16.000000 30.250000
v 9.051506 16.000000 29.750000
v -4.645962 16.000000 30.250000
v -4.699018 16.000000 29.750000
v -4.645962 10.000000 30.250000
v -4.699018 10.000000 29.750000
vt 0.375000 0.000000
vt 0.340911 0.357822
vt 0.374993 0.250006
vt 0.342757 0.650476
vt 0.375000 0.500000
vt 0.624872 0.500143
vt 0.375000 0.750000
vt 0.625000 0.750000
vt 0.375000 1.000000
vt 0.625000 1.000000
vt 0.574252 0.350008
vt 0.564432 0.651151
vn 0.987606 0.000000 -0.156956
vn 0.987605 0.000000 -0.156958
vn 0.987605 0.000000 -0.156958
vn 0.987605 0.000000 -0.156960
vn 0.000000 1.000000 0.000000
vn 0.000000 1.000000 0.000000
vn 0.000000 1.000000 0.000000
vn 0.000000 1.000000 0.000000
vn -0.994417 0.000000 0.105519
vn -0.994417 0.000000 0.105518
vn -0.994417 0.000000 0.105518
vn -0.994417 0.000000 0.105518
vn 0.000000 -1.000000 0.000000
vn 0.000000 -1.000000 0.000000
vn 0.000000 -1.000000 0.000000
vn 0.000000 -1.000000 0.000000
vn 0.000000 0.000000 -1.000000
vn 0.000000 0.000000 -1.000000
vn 0.000000 0.000000 -1.000000
vn 0.000000 0.000000 -1.000000
f 83/138/193 81/136/194 84/139/195
f 84/139/195 81/136/194 82/137/196
f 83/138/197 84/139/198 85/140/199
f 85/140/199 84/139/198 86/141/200
f 87/142/201 85/140/202 88/143/203
f 88/143/203 85/140/202 86/141/204
f 88/143/205 82/145/206 87/142/207
f 87/142/207 82/145/206 81/144/208
f 84/139/209 82/137/210 86/147/211
f 86/147/211 82/137/210 88/146/212
