# This file uses centimeters as units for non-parametric coordinates.

mtllib quad_all.mtl
v 29.750000 0.000000 -30.000000
v 29.750000 0.000000 30.000000
v 29.750000 10.000000 -30.000000
v 29.750000 10.000000 30.000000
v 30.250000 10.000000 -30.000000
v 30.250000 10.000000 30.000000
v 30.250000 0.000000 -30.000000
v 30.250000 0.000000 30.000000
vt -0.004402 0.000000
vt 1.000318 0.002157
vt -0.003493 0.358445
vt 1.003376 0.368242
vt 0.375000 0.500000
vt 0.625000 0.500000
vt 0.375000 0.750000
vt 0.625000 0.750000
vt 0.375000 1.000000
vt 0.625000 1.000000
vt 0.875000 0.000000
vt 0.875000 0.250000
vt 0.125000 0.000000
vt 0.125000 0.250000
vn -1.000000 0.000000 -0.000000
vn -1.000000 0.000000 -0.000000
vn -1.000000 0.000000 -0.000000
vn -1.000000 0.000000 -0.000000
vn -0.000000 1.000000 0.000000
vn -0.000000 1.000000 0.000000
vn -0.000000 1.000000 0.000000
vn -0.000000 1.000000 0.000000
vn 1.000000 0.000000 0.000000
vn 1.000000 0.000000 0.000000
vn 1.000000 0.000000 0.000000
vn 1.000000 0.000000 0.000000
vn 0.000000 -1.000000 0.000000
vn 0.000000 -1.000000 0.000000
vn 0.000000 -1.000000 0.000000
vn 0.000000 -1.000000 0.000000
vn -0.000000 0.000000 1.000000
vn -0.000000 0.000000 1.000000
vn -0.000000 0.000000 1.000000
vn -0.000000 0.000000 1.000000
vn 0.000000 0.000000 -1.000000
vn 0.000000 0.000000 -1.000000
vn 0.000000 0.000000 -1.000000
vn 0.000000 0.000000 -1.000000
usemtl lambert4SG
f 1/1/1 2/2/2 3/3/3
f 3/3/3 2/2/2 4/4/4
f 3/3/5 4/4/6 5/5/7
f 5/5/7 4/4/6 6/6/8
usemtl lambert5SG
f 5/5/9 6/6/10 7/7/11
f 7/7/11 6/6/10 8/8/12
usemtl lambert4SG
f 7/7/13 8/8/14 1/9/15
f 1/9/15 8/8/14 2/10/16
f 2/2/17 8/11/18 4/4/19
f 4/4/19 8/11/18 6/12/20
f 7/13/21 1/1/22 5/14/23
f 5/14/23 1/1/22 3/3/24
v 4.601727 10.000000 -29.735997
v 4.601727 10.000000 -30.235997
v 4.601727 16.000000 -29.735997
v 4.601727 16.000000 -30.235997
v -9.313254 16.000000 -29.735997
v -9.313254 16.000000 -30.235997
v -9.313254 10.000000 -29.735997
v -9.313254 10.000000 -30.235997
vt 0.576327 0.348636
vt 0.625000 0.000000
vt 0.570356 0.651566
vt 0.625000 0.250000
vt 0.375000 0.500000
vt 0.625000 0.500000
vt 0.375000 0.750000
vt 0.625000 0.750000
vt 0.375000 1.000000
vt 0.625000 1.000000
vt 0.875000 0.000000
vt 0.875000 0.250000
vt 0.340586 0.347333
vt 0.343705 0.646622
vn 1.000000 0.000000 0.000000
vn 1.000000 0.000000 0.000000
vn 1.000000 0.000000 0.000000
vn 1.000000 0.000000 0.000000
vn 0.000000 1.000000 0.000000
vn 0.000000 1.000000 0.000000
vn 0.000000 1.000000 0.000000
vn 0.000000 1.000000 0.000000
vn -1.000000 0.000000 -0.000000
vn -1.000000 0.000000 -0.000000
vn -1.000000 0.000000 -0.000000
vn -1.000000 0.000000 -0.000000
vn 0.000000 -1.000000 0.000000
vn 0.000000 -1.000000 0.000000
vn 0.000000 -1.000000 0.000000
vn 0.000000 -1.000000 0.000000
vn 0.000000 0.000000 -1.000000
vn 0.000000 0.000000 -1.000000
vn 0.000000 0.000000 -1.000000
vn 0.000000 0.000000 -1.000000
vn -0.000000 0.000000 1.000000
vn -0.000000 0.000000 1.000000
vn -0.000000 0.000000 1.000000
vn -0.000000 0.000000 1.000000
usemtl lambert2SG
f 9/15/25 10/16/26 11/17/27
f 11/17/27 10/16/26 12/18/28
f 11/17/29 12/18/30 13/19/31
f 13/19/31 12/18/30 14/20/32
f 13/19/33 14/20/34 15/21/35
f 15/21/35 14/20/34 16/22/36
f 15/21/37 16/22/38 9/23/39
f 9/23/39 16/22/38 10/24/40
usemtl lambert5SG
f 10/16/41 16/25/42 12/18/43
f 12/18/43 16/25/42 14/26/44
usemtl lambert2SG
f 15/27/45 9/15/46 13/28/47
f 13/28/47 9/15/46 11/17/48
v -30.250000 10.000000 12.500000
v -29.750000 10.000000 12.500000
v -30.250000 18.000000 12.500000
v -29.750000 18.000000 12.500000
v -30.250000 18.000000 -12.500000
v -29.750000 18.000000 -12.500000
v -30.250000 10.000000 -12.500000
v -29.750000 10.000000 -12.500000
vt 0.375000 0.000000
vt 0.300659 0.350033
vt 0.375000 0.250000
vt 0.304861 0.634909
vt 0.375000 0.500000
vt 0.625000 0.500000
vt 0.375000 0.750000
vt 0.625000 0.750000
vt 0.375000 1.000000
vt 0.625000 1.000000
vt 0.704112 0.343835
vt 0.690767 0.635805
vt 0.125000 0.000000
vt 0.125000 0.250000
vn 0.000000 0.000000 1.000000
vn 0.000000 0.000000 1.000000
vn 0.000000 0.000000 1.000000
vn 0.000000 0.000000 1.000000
vn 0.000000 1.000000 0.000000
vn 0.000000 1.000000 0.000000
vn 0.000000 1.000000 0.000000
vn 0.000000 1.000000 0.000000
vn 0.000000 0.000000 -1.000000
vn 0.000000 0.000000 -1.000000
vn 0.000000 0.000000 -1.000000
vn 0.000000 0.000000 -1.000000
vn 0.000000 -1.000000 0.000000
vn 0.000000 -1.000000 0.000000
vn 0.000000 -1.000000 0.000000
vn 0.000000 -1.000000 0.000000
vn 1.000000 0.000000 0.000000
vn 1.000000 0.000000 0.000000
vn 1.000000 0.000000 0.000000
vn 1.000000 0.000000 0.000000
vn -1.000000 0.000000 0.000000
vn -1.000000 0.000000 0.000000
vn -1.000000 0.000000 0.000000
vn -1.000000 0.000000 0.000000
usemtl initialShadingGroup
f 17/29/49 18/30/50 19/31/51
f 19/31/51 18/30/50 20/32/52
f 19/31/53 20/32/54 21/33/55
f 21/33/55 20/32/54 22/34/56
f 21/33/57 22/34/58 23/35/59
f 23/35/59 22/34/58 24/36/60
f 23/35/61 24/36/62 17/37/63
f 17/37/63 24/36/62 18/38/64
usemtl lambert3SG
f 18/30/65 24/39/66 20/32/67
f 20/32/67 24/39/66 22/40/68
usemtl lambert5SG
f 23/41/69 17/29/70 21/42/71
f 21/42/71 17/29/70 19/31/72
v -30.350000 5.272078 -0.000000
v -29.850000 5.552142 0.153581
v -30.350000 18.000000 12.727922
v -29.850000 17.846419 12.447858
v -30.350000 30.727922 0.000000
v -29.850000 30.447858 -0.153581
v -30.350000 18.000000 -12.727922
v -29.850000 18.153581 -12.447858
vt 0.375000 0.000000
vt 0.495448 0.501067
vt 0.375000 0.250000
vt 0.317765 0.630515
vt 0.375000 0.500000
vt 0.625000 0.500000
vt 0.375000 0.750000
vt 0.625000 0.750000
vt 0.375000 1.000000
vt 0.625000 1.000000
vt 0.682877 0.633744
vt 0.501516 0.905037
vt 0.125000 0.000000
vt 0.125000 0.250000
vn 0.176081 -0.696059 0.696059
vn 0.176081 -0.696059 0.696059
vn 0.176081 -0.696059 0.696059
vn 0.176081 -0.696059 0.696059
vn 0.522787 0.602782 0.602782
vn 0.522787 0.602782 0.602782
vn 0.522787 0.602782 0.602782
vn 0.522787 0.602782 0.602782
vn 0.176081 0.696059 -0.696059
vn 0.176081 0.696059 -0.696059
vn 0.176081 0.696059 -0.696059
vn 0.176081 0.696059 -0.696059
vn 0.522787 -0.602782 -0.602782
vn 0.522787 -0.602782 -0.602782
vn 0.522787 -0.602782 -0.602782
vn 0.522787 -0.602782 -0.602782
vn 1.000000 0.000000 0.000000
vn 1.000000 0.000000 0.000000
vn 1.000000 0.000000 0.000000
vn 1.000000 0.000000 0.000000
vn -1.000000 0.000000 0.000000
vn -1.000000 0.000000 0.000000
vn -1.000000 0.000000 0.000000
vn -1.000000 0.000000 0.000000
usemtl lambert3SG
f 25/43/73 26/44/74 27/45/75
f 27/45/75 26/44/74 28/46/76
f 27/45/77 28/46/78 29/47/79
f 29/47/79 28/46/78 30/48/80
f 29/47/81 30/48/82 31/49/83
f 31/49/83 30/48/82 32/50/84
f 31/49/85 32/50/86 25/51/87
f 25/51/87 32/50/86 26/52/88
f 26/44/89 32/53/90 28/46/91
f 28/46/91 32/53/90 30/54/92
usemtl lambert5SG
f 31/55/93 25/43/94 29/56/95
f 29/56/95 25/43/94 27/45/96
v -4.690407 16.000000 30.250000
v 9.032020 16.000000 30.250000
v -4.690407 20.000000 30.250000
v 9.032020 20.000000 30.250000
v -4.690405 20.000000 29.750000
v 9.032021 20.000000 29.750000
v -4.690405 16.000000 29.750000
v 9.032021 16.000000 29.750000
vt 0.375000 0.000000
vt 0.625000 0.000000
vt 0.375000 0.250000
vt 0.625000 0.250000
vt 0.319488 0.716454
vt 0.573262 0.614011
vt 0.321841 0.711781
vt 0.584812 0.649802
vt 0.375000 1.000000
vt 0.625000 1.000000
vt 0.875000 0.000000
vt 0.875000 0.250000
vt 0.125000 0.000000
vt 0.125000 0.250000
vt 0.593990 0.720282
vt 0.601004 0.708731
vt 0.333922 0.631166
vt 0.332875 0.649236
vn 0.000000 0.000000 1.000000
vn 0.000000 0.000000 1.000000
vn 0.000000 0.000000 1.000000
vn 0.000000 0.000000 1.000000
vn 0.000000 1.000000 0.000000
vn 0.000000 1.000000 0.000000
vn 0.000000 1.000000 0.000000
vn 0.000000 1.000000 0.000000
vn 0.000000 0.000000 -1.000000
vn 0.000000 0.000000 -1.000000
vn 0.000000 0.000000 -1.000000
vn 0.000000 0.000000 -1.000000
vn 0.000000 -1.000000 0.000000
vn 0.000000 -1.000000 0.000000
vn 0.000000 -1.000000 0.000000
vn 0.000000 -1.000000 0.000000
vn 1.000000 0.000000 0.000003
vn 1.000000 0.000000 0.000003
vn 1.000000 0.000000 0.000003
vn 1.000000 0.000000 0.000003
vn -1.000000 0.000000 -0.000003
vn -1.000000 0.000000 -0.000003
vn -1.000000 0.000000 -0.000003
vn -1.000000 0.000000 -0.000003
f 33/57/97 34/58/98 35/59/99
f 35/59/99 34/58/98 36/60/100
usemtl lambert2SG
f 35/59/101 36/60/102 37/73/103
f 37/73/103 36/60/102 38/62/104
f 37/61/105 38/71/106 39/74/107
f 39/74/107 38/71/106 40/64/108
f 39/63/109 40/72/110 33/65/111
f 33/65/111 40/72/110 34/66/112
f 34/58/113 40/67/114 36/60/115
f 36/60/115 40/67/114 38/68/116
f 39/69/117 33/57/118 37/70/119
f 37/70/119 33/57/118 35/59/120
v 30.000000 -0.000000 29.749996
v -30.000000 0.000000 29.749996
v 30.000000 10.000000 29.749996
v -30.000000 10.000000 29.749996
v 30.000000 10.000000 30.250000
v -30.000000 10.000000 30.250000
v 30.000000 -0.000000 30.250000
v -30.000000 0.000000 30.250000
vt -0.003380 0.002162
vt 0.998596 -0.004294
vt -0.008676 0.361783
vt 1.000021 0.350720
vt 0.375000 0.500000
vt 0.625000 0.500000
vt 0.375000 0.750000
vt 0.625000 0.750000
vt 0.375000 1.000000
vt 0.625000 1.000000
vt 0.875000 0.000000
vt 0.875000 0.250000
vt 0.125000 0.000000
vt 0.125000 0.250000
vn 0.000000 0.000000 -1.000000
vn 0.000000 0.000000 -1.000000
vn 0.000000 0.000000 -1.000000
vn 0.000000 0.000000 -1.000000
vn 0.000000 1.000000 0.000000
vn 0.000000 1.000000 0.000000
vn 0.000000 1.000000 0.000000
vn 0.000000 1.000000 0.000000
vn -0.000000 -0.000000 1.000000
vn -0.000000 -0.000000 1.000000
vn -0.000000 -0.000000 1.000000
vn -0.000000 -0.000000 1.000000
vn -0.000000 -1.000000 -0.000000
vn -0.000000 -1.000000 -0.000000
vn -0.000000 -1.000000 -0.000000
vn -0.000000 -1.000000 -0.000000
vn -1.000000 0.000000 0.000000
vn -1.000000 0.000000 0.000000
vn -1.000000 0.000000 0.000000
vn -1.000000 0.000000 0.000000
vn 1.000000 -0.000000 0.000000
vn 1.000000 -0.000000 0.000000
vn 1.000000 -0.000000 0.000000
vn 1.000000 -0.000000 0.000000
f 41/75/121 42/76/122 43/77/123
f 43/77/123 42/76/122 44/78/124
f 43/77/125 44/78/126 45/79/127
f 45/79/127 44/78/126 46/80/128
usemtl lambert5SG
f 45/79/129 46/80/130 47/81/131
f 47/81/131 46/80/130 48/82/132
usemtl lambert2SG
f 47/81/133 48/82/134 41/83/135
f 41/83/135 48/82/134 42/84/136
f 42/76/137 48/85/138 44/78/139
f 44/78/139 48/85/138 46/86/140
f 47/87/141 41/75/142 45/88/143
f 45/88/143 41/75/142 43/77/144
v -30.000000 0.000000 -29.750000
v 30.000000 0.000000 -29.750000
v -30.000000 10.000000 -29.750000
v 30.000000 10.000000 -29.750000
v -30.000000 10.000000 -30.250000
v 30.000000 10.000000 -30.250000
v -30.000000 0.000000 -30.250000
v 30.000000 0.000000 -30.250000
vt -0.001367 -0.004261
vt 1.002743 0.000000
vt -0.007377 0.355915
vt 1.003349 0.349343
vt 0.375000 0.500000
vt 0.625000 0.500000
vt 0.375000 0.750000
vt 0.625000 0.750000
vt 0.375000 1.000000
vt 0.625000 1.000000
vt 0.875000 0.000000
vt 0.875000 0.250000
vt -1.091259 0.202710
vt 0.125000 0.250000
vn 0.000000 0.000000 1.000000
vn 0.000000 0.000000 1.000000
vn 0.000000 0.000000 1.000000
vn 0.000000 0.000000 1.000000
vn 0.000000 1.000000 0.000000
vn 0.000000 1.000000 0.000000
vn 0.000000 1.000000 0.000000
vn 0.000000 1.000000 0.000000
vn 0.000000 0.000000 -1.000000
vn 0.000000 0.000000 -1.000000
vn 0.000000 0.000000 -1.000000
vn 0.000000 0.000000 -1.000000
vn 0.000000 -1.000000 0.000000
vn 0.000000 -1.000000 0.000000
vn 0.000000 -1.000000 0.000000
vn 0.000000 -1.000000 0.000000
vn 1.000000 0.000000 0.000000
vn 1.000000 0.000000 0.000000
vn 1.000000 0.000000 0.000000
vn 1.000000 0.000000 0.000000
vn -1.000000 0.000000 0.000000
vn -1.000000 0.000000 0.000000
vn -1.000000 0.000000 0.000000
vn -1.000000 0.000000 0.000000
f 49/89/145 50/90/146 51/91/147
f 51/91/147 50/90/146 52/92/148
f 51/91/149 52/92/150 53/93/151
f 53/93/151 52/92/150 54/94/152
usemtl lambert5SG
f 53/93/153 54/94/154 55/95/155
f 55/95/155 54/94/154 56/96/156
usemtl lambert2SG
f 55/95/157 56/96/158 49/97/159
f 49/97/159 56/96/158 50/98/160
f 50/90/161 56/99/162 52/92/163
f 52/92/163 56/99/162 54/100/164
f 55/101/165 49/89/166 53/102/167
f 53/102/167 49/89/166 51/91/168
v -29.750000 0.000000 30.000000
v -29.750000 0.000000 -30.000000
v -29.750000 10.000000 30.000000
v -29.750000 10.000000 -30.000000
v -30.250000 10.000000 30.000000
v -30.250000 10.000000 -30.000000
v -30.250000 0.000000 30.000000
v -30.250000 0.000000 -30.000000
vt 0.003689 0.003782
vt 1.000102 0.000915
vt -0.009517 0.344229
vt 1.003520 0.353381
vt 0.380427 0.497287
vt 0.630427 0.497287
vt 0.380427 0.747287
vt 0.630427 0.747287
vt 0.380427 0.997287
vt 0.630427 0.997287
vt 0.946192 -0.005921
vt 1.000795 0.324784
vt -0.122414 -0.009087
vt 0.130427 0.247287
vn 1.000000 0.000000 0.000000
vn 1.000000 0.000000 0.000000
vn 1.000000 0.000000 0.000000
vn 1.000000 0.000000 0.000000
vn 0.000000 1.000000 0.000000
vn 0.000000 1.000000 0.000000
vn 0.000000 1.000000 0.000000
vn 0.000000 1.000000 0.000000
vn -1.000000 0.000000 -0.000000
vn -1.000000 0.000000 -0.000000
vn -1.000000 0.000000 -0.000000
vn -1.000000 0.000000 -0.000000
vn 0.000000 -1.000000 0.000000
vn 0.000000 -1.000000 0.000000
vn 0.000000 -1.000000 0.000000
vn 0.000000 -1.000000 0.000000
vn 0.000000 0.000000 -1.000000
vn 0.000000 0.000000 -1.000000
vn 0.000000 0.000000 -1.000000
vn 0.000000 0.000000 -1.000000
vn -0.000000 0.000000 1.000000
vn -0.000000 0.000000 1.000000
vn -0.000000 0.000000 1.000000
vn -0.000000 0.000000 1.000000
usemtl lambert3SG
f 57/103/169 58/104/170 59/105/171
f 59/105/171 58/104/170 60/106/172
f 59/105/173 60/106/174 61/107/175
f 61/107/175 60/106/174 62/108/176
usemtl lambert5SG
f 61/107/177 62/108/178 63/109/179
f 63/109/179 62/108/178 64/110/180
usemtl lambert3SG
f 63/109/181 64/110/182 57/111/183
f 57/111/183 64/110/182 58/112/184
f 58/104/185 64/113/186 60/106/187
f 60/106/187 64/113/186 62/114/188
f 63/115/189 57/103/190 61/116/191
f 61/116/191 57/103/190 59/105/192
v 29.750000 10.000000 9.022088
v 30.250000 10.000000 4.693998
v 29.750000 15.000000 9.022088
v 30.250000 15.000000 4.693998
v 29.750000 15.000000 -11.105721
v 30.250000 15.000000 -9.430227
v 29.750000 10.000000 -11.105721
v 30.250000 10.000000 -9.430227
vt 0.649424 0.359516
vt 0.625000 0.000000
vt 0.644847 0.534838
vt 0.625000 0.250000
vt 0.375000 0.500000
vt 0.625000 0.500000
vt 0.375000 0.750000
vt 0.625000 0.750000
vt 0.375000 1.000000
vt 0.625000 1.000000
vt 0.875000 0.000000
vt 0.875000 0.250000
vt 0.305394 0.355510
vt 0.304763 0.525059
vn 0.993393 0.000000 0.114761
vn 0.993393 0.000000 0.114761
vn 0.993393 0.000000 0.114761
vn 0.993393 0.000000 0.114761
vn 0.000000 1.000000 0.000000
vn 0.000000 1.000000 0.000000
vn 0.000000 1.000000 0.000000
vn 0.000000 1.000000 0.000000
vn 0.958242 0.000000 -0.285958
vn 0.958242 0.000000 -0.285958
vn 0.958242 0.000000 -0.285958
vn 0.958242 0.000000 -0.285958
vn 0.000000 -1.000000 0.000000
vn 0.000000 -1.000000 0.000000
vn 0.000000 -1.000000 0.000000
vn 0.000000 -1.000000 0.000000
vn 1.000000 0.000000 0.000000
vn 1.000000 0.000000 0.000000
vn 1.000000 0.000000 0.000000
vn 1.000000 0.000000 0.000000
vn -1.000000 0.000000 0.000000
vn -1.000000 0.000000 0.000000
vn -1.000000 0.000000 0.000000
vn -1.000000 0.000000 0.000000
usemtl lambert5SG
f 65/117/193 66/118/194 67/119/195
f 67/119/195 66/118/194 68/120/196
usemtl lambert4SG
f 67/119/197 68/120/198 69/121/199
f 69/121/199 68/120/198 70/122/200
usemtl lambert5SG
f 69/121/201 70/122/202 71/123/203
f 71/123/203 70/122/202 72/124/204
usemtl lambert4SG
f 72/124/205 66/126/206 71/123/207
f 71/123/207 66/126/206 65/125/208
usemtl lambert5SG
f 66/118/209 72/127/210 68/120/211
f 68/120/211 72/127/210 70/128/212
usemtl lambert4SG
f 71/129/213 65/117/214 69/130/215
f 69/130/215 65/117/214 67/119/216
v -9.514870 16.000000 -29.750000
v 4.602764 16.000000 -29.750000
v -9.514870 20.000000 -29.750000
v 4.602764 20.000000 -29.750000
v -9.317265 20.000000 -30.250000
v 4.405162 20.000000 -30.250000
v -9.317265 16.000000 -30.250000
v 4.405162 16.000000 -30.250000
vt 0.331831 0.648448
vt 0.580084 0.648801
vt 0.332198 0.731457
vt 0.584582 0.733881
vt 0.375000 0.500000
vt 0.625000 0.500000
vt 0.332658 0.638180
vt 0.587799 0.648803
vt 0.375000 1.000000
vt 0.625000 1.000000
vt 0.875000 0.000000
vt 0.875000 0.250000
vt 0.125000 0.000000
vt 0.125000 0.250000
vn 0.000000 0.000000 1.000000
vn 0.000000 0.000000 1.000000
vn 0.000000 0.000000 1.000000
vn 0.000000 0.000000 1.000000
vn 0.000000 1.000000 0.000000
vn 0.000000 1.000000 0.000000
vn 0.000000 1.000000 0.000000
vn 0.000000 1.000000 0.000000
vn 0.000000 0.000000 -1.000000
vn 0.000000 0.000000 -1.000000
vn 0.000000 0.000000 -1.000000
vn 0.000000 0.000000 -1.000000
vn 0.000000 -1.000000 -0.000000
vn 0.000000 -1.000000 0.000000
vn 0.000000 -1.000000 0.000000
vn 0.000000 -1.000000 0.000001
vn 0.930007 0.000000 -0.367543
vn 0.930007 0.000000 -0.367543
vn 0.930007 0.000000 -0.367543
vn 0.930007 0.000000 -0.367543
vn -0.930005 0.000000 -0.367548
vn -0.930005 0.000000 -0.367548
vn -0.930005 0.000000 -0.367548
vn -0.930005 0.000000 -0.367548
usemtl lambert2SG
f 73/131/217 74/132/218 75/133/219
f 75/133/219 74/132/218 76/134/220
f 75/133/221 76/134/222 77/135/223
f 77/135/223 76/134/222 78/136/224
usemtl lambert5SG
f 77/135/225 78/136/226 79/137/227
f 79/137/227 78/136/226 80/138/228
usemtl lambert2SG
f 79/137/229 80/138/230 73/139/231
f 73/139/231 80/138/230 74/140/232
f 74/132/233 80/141/234 76/134/235
f 76/134/235 80/141/234 78/142/236
f 79/143/237 73/131/238 77/144/239
f 77/144/239 73/131/238 75/133/240
v 9.130969 10.000000 30.250000
v 9.051505 10.000000 29.750000
v 9.130969 16.000000 30.250000
v 9.051505 16.000000 29.750000
v -4.645962 16.000000 30.250000
v -4.699017 16.000000 29.750000
v -4.645962 10.000000 30.250000
v -4.699017 10.000000 29.750000
vt 0.375000 0.000000
vt 0.340911 0.357822
vt 0.374993 0.250006
vt 0.342757 0.650476
vt 0.375000 0.500000
vt 0.624872 0.500143
vt 0.375000 0.750000
vt 0.625000 0.750000
vt 0.375000 1.000000
vt 0.625000 1.000000
vt 0.574252 0.350008
vt 0.564432 0.651151
vt 0.125000 0.000000
vt 0.125000 0.250000
vn 0.987605 0.000000 -0.156960
vn 0.987605 0.000000 -0.156958
vn 0.987605 0.000000 -0.156958
vn 0.987606 0.000000 -0.156956
vn 0.000000 1.000000 0.000000
vn 0.000000 1.000000 0.000000
vn 0.000000 1.000000 0.000000
vn 0.000000 1.000000 0.000000
vn -0.994417 0.000000 0.105518
vn -0.994417 0.000000 0.105518
vn -0.994417 0.000000 0.105518
vn -0.994417 0.000000 0.105518
vn 0.000000 -1.000000 0.000000
vn 0.000000 -1.000000 0.000000
vn 0.000000 -1.000000 0.000000
vn 0.000000 -1.000000 0.000000
vn 0.000000 0.000000 -1.000000
vn 0.000000 0.000000 -1.000000
vn 0.000000 0.000000 -1.000000
vn 0.000000 0.000000 -1.000000
vn -0.000000 0.000000 1.000000
vn -0.000000 0.000000 1.000000
vn -0.000000 0.000000 1.000000
vn -0.000000 0.000000 1.000000
f 81/145/241 82/146/242 83/147/243
f 83/147/243 82/146/242 84/148/244
f 83/147/245 84/148/246 85/149/247
f 85/149/247 84/148/246 86/150/248
f 85/149/249 86/150/250 87/151/251
f 87/151/251 86/150/250 88/152/252
f 88/152/253 82/154/254 87/151/255
f 87/151/255 82/154/254 81/153/256
f 82/146/257 88/155/258 84/148/259
f 84/148/259 88/155/258 86/156/260
usemtl lambert5SG
f 87/157/261 81/145/262 85/158/263
f 85/158/263 81/145/262 83/147/264
